<!DOCTYPE svg PUBLIC "-//W3C//DTD SVG 1.1//EN" "http://www.w3.org/Graphics/SVG/1.1/DTD/svg11.dtd">
<!-- Uploaded to: SVG Repo, www.svgrepo.com, Transformed by: SVG Repo Mixer Tools -->
<svg fill="#880c0c" height="800px" width="800px" version="1.1" id="Layer_1" xmlns="http://www.w3.org/2000/svg" xmlns:xlink="http://www.w3.org/1999/xlink" viewBox="0 0 512 512" xml:space="preserve" stroke="#880c0c">
<g id="SVGRepo_bgCarrier" stroke-width="0"/>
<g id="SVGRepo_tracerCarrier" stroke-linecap="round" stroke-linejoin="round" stroke="#CCCCCC" stroke-width="6.144"/>
<g id="SVGRepo_iconCarrier"> <g> <g> <path d="M498.884,78.906h-14.52V33.8c0-18.037-14.669-32.712-32.698-32.712h-62.629c-18.037,0-32.712,14.674-32.712,32.712v45.106 H320.02V33.8c0-18.037-14.674-32.712-32.712-32.712h-62.616c-18.037,0-32.712,14.674-32.712,32.712v45.106h-33.944V33.8 c0-18.037-14.674-32.712-32.712-32.712H62.708c-18.037,0-32.712,14.674-32.712,32.712v45.106h-16.88 C5.872,78.906,0,84.778,0,92.023v135.253v135.253c0,0.003,0,0.004,0,0.007s0,0.004,0,0.007v135.253 c0,7.244,5.872,13.116,13.116,13.116h485.768c7.244,0,13.116-5.872,13.116-13.116v-126.57V227.276V92.023 C512,84.778,506.128,78.906,498.884,78.906z M382.557,33.8c0-3.573,2.907-6.479,6.479-6.479h62.629 c3.565,0,6.466,2.906,6.466,6.479v45.106h-75.575V33.8z M218.213,33.8c0-3.573,2.907-6.479,6.479-6.479h62.616 c3.573,0,6.479,2.906,6.479,6.479v45.106h-75.575V33.8z M56.229,33.8c0-3.573,2.907-6.479,6.479-6.479h62.616 c3.573,0,6.479,2.906,6.479,6.479v45.106H56.229V33.8z M485.768,484.679H26.232V375.658h459.536V484.679z M485.768,349.426 H350.016V240.392h135.752V349.426z M485.768,214.16H205.096c-7.244,0-13.116,5.872-13.116,13.116s5.872,13.116,13.116,13.116 h118.688v109.021H26.232V240.392h62.433c7.244,0,13.116-5.872,13.116-13.116s-5.872-13.116-13.116-13.116H26.232V105.139h16.88 H144.92h60.177h101.807h62.538h101.807h14.52V214.16z"/> </g> </g> <g> <g> <path d="M158.941,214.16h-10.493h-6.912h-4.223c-7.244,0-13.116,5.872-13.116,13.116s5.872,13.116,13.116,13.116h4.223h6.912 h10.493c7.244,0,13.116-5.872,13.116-13.116S166.185,214.16,158.941,214.16z"/> </g> </g> </g>
</svg>